<svg viewBox="-24 0 511 512" xmlns="http://www.w3.org/2000/svg" fill="#ffffff"><path d="m218.042969 199.582031c5.859375 5.859375 15.355469 5.859375 21.214843 0l19.835938-19.835937v60.1875c0 8.285156 6.714844 15 15 15 8.28125 0 15-6.714844 15-15v-60.1875l19.835938 19.839844c2.929687 2.925781 6.769531 4.390624 10.605468 4.390624 3.839844 0 7.679688-1.464843 10.609375-4.394531 5.859375-5.855469 5.855469-15.355469 0-21.214843l-45.445312-45.4375c-5.859375-5.859376-15.355469-5.859376-21.214844 0l-45.4375 45.441406c-5.859375 5.855468-5.859375 15.355468-.003906 21.210937zm0 0"></path><path d="m449.300781 353.46875h-283.957031c-14.347656 0-27.5625-12.074219-28.863281-26.363281l-.71875-7.902344h256.394531c29.703125 0 56.054688-24.066406 58.742188-53.648437l13.175781-144.929688c1.351562-14.890625-3.296875-28.996094-13.09375-39.722656-9.796875-10.730469-23.425781-16.636719-38.375-16.636719h-300.019531l-.964844-10.621094c-2.691406-29.582031-28.417969-53.644531-57.347656-53.644531h-38.773438c-8.285156 0-15 6.714844-15 15s6.714844 15 15 15h38.773438c13.589843 0 26.171874 12.070312 27.472656 26.359375l2.214844 24.375c.003906.035156.007812.070313.011718.105469l20.4375 224.859375c.003906.019531.003906.039062.007813.058593l2.1875 24.0625c2.6875 29.582032 29.039062 53.644532 58.742187 53.644532h283.953125c8.285157 0 15-6.714844 15-15 0-8.28125-6.714843-14.996094-15-14.996094zm-36.699219-259.203125c6.417969 0 12.179688 2.4375 16.226563 6.867187 4.042969 4.425782 5.949219 10.386719 5.371094 16.777344l-13.179688 144.929688c-1.296875 14.289062-14.515625 26.363281-28.863281 26.363281h-259.121094l-17.71875-194.9375zm0 0"></path><path d="m383.640625 417.730469c-25.988281 0-47.132813 21.148437-47.132813 47.136719 0 25.988281 21.144532 47.132812 47.132813 47.132812s47.132813-21.144531 47.132813-47.132812c0-25.988282-21.144532-47.136719-47.132813-47.136719zm0 64.269531c-9.449219 0-17.132813-7.683594-17.132813-17.132812 0-9.445313 7.683594-17.136719 17.132813-17.136719 9.445313 0 17.132813 7.691406 17.132813 17.136719 0 9.449218-7.6875 17.132812-17.132813 17.132812zm0 0"></path><path d="m190.839844 417.730469c-25.988282 0-47.132813 21.148437-47.132813 47.136719 0 25.988281 21.144531 47.132812 47.132813 47.132812 25.988281 0 47.132812-21.144531 47.132812-47.132812 0-25.988282-21.144531-47.136719-47.132812-47.136719zm0 64.269531c-9.449219 0-17.132813-7.683594-17.132813-17.132812 0-9.445313 7.683594-17.136719 17.132813-17.136719 9.445312 0 17.132812 7.691406 17.132812 17.136719 0 9.449218-7.683594 17.132812-17.132812 17.132812zm0 0"></path></svg>